<?xml version="1.0" standalone="no"?>
<!DOCTYPE svg PUBLIC "-//W3C//DTD SVG 20010904//EN"
 "http://www.w3.org/TR/2001/REC-SVG-20010904/DTD/svg10.dtd">
<svg version="1.0" xmlns="http://www.w3.org/2000/svg"
 width="700.000000pt" height="700.000000pt" viewBox="0 0 700.000000 700.000000"
 preserveAspectRatio="xMidYMid meet">
<metadata>
Created by potrace 1.11, written by Peter Selinger 2001-2013
</metadata>
<g transform="translate(0.000000,700.000000) scale(0.100000,-0.100000)"
fill="#000000" stroke="none">
<path d="M3279 5966 c-2 -2 -31 -7 -64 -10 -271 -26 -594 -126 -863 -268 -750
-394 -1253 -1155 -1317 -1993 -8 -101 -9 -355 -1 -401 3 -16 7 -54 10 -84 44
-429 235 -883 533 -1265 64 -82 293 -309 373 -370 36 -27 67 -52 70 -55 13
-14 194 -132 275 -178 127 -73 381 -180 500 -213 178 -47 304 -73 415 -84 30
-3 71 -8 90 -11 46 -7 365 -7 410 0 19 3 58 8 85 11 429 50 843 219 1200 488
96 72 101 76 236 208 288 281 493 610 624 1004 20 59 53 185 60 224 3 19 7 37
9 40 2 3 7 26 10 51 3 25 8 56 11 70 3 14 8 50 11 80 3 30 7 66 9 80 7 36 7
357 1 410 -3 25 -8 65 -10 90 -2 25 -9 72 -15 105 -6 33 -12 72 -15 88 -3 15
-7 35 -10 45 -3 9 -7 28 -10 42 -22 114 -96 326 -167 478 -126 267 -285 490
-508 712 -279 277 -625 486 -996 601 -75 24 -247 65 -300 73 -22 3 -51 8 -65
11 -14 3 -43 8 -65 11 -44 7 -519 16 -526 10z m386 -280 c259 -18 525 -88 765
-202 119 -57 283 -151 288 -166 2 -4 8 -8 14 -8 6 0 49 -30 97 -67 354 -276
613 -638 751 -1053 43 -131 84 -309 95 -420 4 -36 9 -74 11 -85 5 -23 4 -312
0 -365 -5 -56 -16 -146 -21 -171 -21 -110 -38 -189 -45 -214 -37 -122 -64
-201 -71 -209 -5 -6 -9 -17 -9 -25 0 -52 -238 -470 -317 -556 -10 -11 -43 -50
-74 -85 -110 -126 -201 -211 -339 -315 -52 -40 -108 -80 -125 -89 -16 -9 -48
-28 -70 -41 -250 -156 -608 -272 -920 -300 -60 -5 -326 -6 -375 -1 -77 8 -156
18 -170 21 -8 3 -33 7 -55 10 -22 3 -53 10 -70 15 -16 5 -41 11 -55 14 -91 15
-314 98 -453 167 -76 39 -241 135 -270 158 -6 6 -57 46 -112 90 -306 243 -537
556 -680 921 -41 105 -99 309 -109 384 -4 27 -9 52 -11 55 -3 5 -6 32 -20 171
-6 54 -6 308 -1 365 29 299 102 552 233 810 240 472 657 851 1148 1045 75 29
250 85 300 95 140 28 256 46 345 51 58 3 106 7 107 8 3 2 124 -2 218 -8z"/>
<path d="M3417 5324 c-1 -1 -38 -5 -83 -8 -140 -11 -430 -76 -469 -106 -5 -4
-28 -13 -50 -20 -22 -7 -84 -35 -138 -62 -379 -192 -682 -518 -855 -918 -23
-51 -79 -218 -86 -252 -2 -13 -11 -55 -20 -94 -25 -117 -31 -190 -30 -374 1
-243 44 -477 120 -647 8 -17 14 -34 14 -38 0 -17 105 -215 156 -292 147 -226
347 -420 587 -568 109 -67 353 -174 433 -189 11 -2 39 -9 64 -16 25 -7 54 -14
65 -16 364 -71 715 -41 1045 88 136 54 368 189 464 269 229 193 374 374 494
614 74 150 143 351 158 465 3 25 8 48 10 52 25 41 24 510 -1 598 -2 8 -6 26
-9 40 -32 188 -122 421 -232 600 -283 462 -735 764 -1278 854 -70 12 -351 27
-359 20z"/>
</g>
</svg>
